<svg xmlns="http://www.w3.org/2000/svg" xmlns:xlink="http://www.w3.org/1999/xlink" width="2000" zoomAndPan="magnify" viewBox="0 0 1500 1499.999933" height="2000" preserveAspectRatio="xMidYMid meet" version="1.0"><defs><g/><clipPath id="56357a3c14"><rect x="0" width="1452" y="0" height="1488"/></clipPath></defs><g transform="matrix(1, 0, 0, 1, 24, 12)"><g clip-path="url(#56357a3c14)"><g fill="#171717" fill-opacity="1"><g transform="translate(4.834113, 713.658442)"><g><path d="M 325.15625 -665.515625 L 575.203125 -81.765625 L 379.359375 -665.515625 L 692.140625 -665.515625 L 692.140625 0 L 278.578125 0 C 243.710938 0 211.066406 -6.96875 180.640625 -20.90625 C 150.222656 -34.851562 123.757812 -53.710938 101.25 -77.484375 C 78.75 -101.253906 61 -128.664062 48 -159.71875 C 35.007812 -190.78125 28.515625 -223.742188 28.515625 -258.609375 L 28.515625 -665.515625 Z M 325.15625 -665.515625 "/></g></g></g><g fill="#171717" fill-opacity="1"><g transform="translate(725.508533, 713.658442)"><g><path d="M 693.09375 -566.640625 C 693.09375 -547.628906 689.765625 -529.882812 683.109375 -513.40625 C 676.453125 -496.925781 667.421875 -482.820312 656.015625 -471.09375 C 644.609375 -459.375 630.976562 -450.503906 615.125 -444.484375 C 599.28125 -438.460938 582.164062 -436.398438 563.78125 -438.296875 L 247.203125 -476.328125 L 625.59375 -56.09375 L 379.359375 -377.453125 C 370.484375 -389.492188 368.101562 -400.582031 372.21875 -410.71875 C 376.34375 -420.863281 385.691406 -424.988281 400.265625 -423.09375 L 693.09375 -384.109375 L 693.09375 0 L 299.484375 0 C 262.085938 0 226.910156 -7.128906 193.953125 -21.390625 C 160.992188 -35.648438 132.3125 -55.140625 107.90625 -79.859375 C 83.507812 -104.578125 64.175781 -133.414062 49.90625 -166.375 C 35.644531 -199.34375 28.515625 -234.523438 28.515625 -271.921875 L 28.515625 -434.5 C 28.515625 -466.1875 34.535156 -496.128906 46.578125 -524.328125 C 58.628906 -552.535156 75.113281 -577.097656 96.03125 -598.015625 C 116.945312 -618.929688 141.347656 -635.410156 169.234375 -647.453125 C 197.117188 -659.492188 226.910156 -665.515625 258.609375 -665.515625 L 693.09375 -665.515625 Z M 693.09375 -566.640625 "/></g></g></g><g fill="#171717" fill-opacity="1"><g transform="translate(1.974419, 1426.727999)"><g><path d="M 692.140625 -665.515625 L 692.140625 -450.65625 C 692.140625 -430.375 685.328125 -415.953125 671.703125 -407.390625 C 658.078125 -398.835938 642.707031 -394.5625 625.59375 -394.5625 C 611.644531 -394.5625 598.015625 -397.097656 584.703125 -402.171875 L 85.5625 -601.8125 L 397.421875 -437.359375 C 446.859375 -410.734375 472.367188 -381.890625 473.953125 -350.828125 C 475.535156 -319.773438 450.023438 -288.082031 397.421875 -255.75 L 106.484375 -75.109375 L 641.75 -334.671875 C 646.1875 -337.203125 650.941406 -338.46875 656.015625 -338.46875 C 665.523438 -338.46875 673.921875 -334.984375 681.203125 -328.015625 C 688.492188 -321.046875 692.140625 -312.488281 692.140625 -302.34375 L 692.140625 0 L 28.515625 0 L 28.515625 -665.515625 Z M 692.140625 -665.515625 "/></g></g></g><g fill="#171717" fill-opacity="1"><g transform="translate(722.648839, 1426.727999)"><g><path d="M 28.515625 -665.515625 L 388.859375 -665.515625 C 397.734375 -665.515625 405.5 -662.820312 412.15625 -657.4375 C 418.8125 -652.050781 423.40625 -645.238281 425.9375 -637 L 578.046875 -79.859375 L 470.625 -617.03125 C 468.09375 -629.707031 470.628906 -640.957031 478.234375 -650.78125 C 485.835938 -660.601562 495.976562 -665.515625 508.65625 -665.515625 L 698.796875 -665.515625 L 698.796875 -82.71875 C 698.796875 -59.257812 690.554688 -39.445312 674.078125 -23.28125 C 657.597656 -7.125 637.945312 0.953125 615.125 0.953125 L 315.65625 0.953125 C 303.613281 0.953125 292.519531 -1.738281 282.375 -7.125 C 272.238281 -12.519531 263.84375 -19.648438 257.1875 -28.515625 C 250.53125 -37.390625 245.929688 -47.53125 243.390625 -58.9375 C 240.859375 -70.351562 241.175781 -82.082031 244.34375 -94.125 L 367 -561.890625 L 190.15625 -55.140625 C 184.445312 -38.660156 174.617188 -25.191406 160.671875 -14.734375 C 146.734375 -4.273438 130.890625 0.953125 113.140625 0.953125 L 28.515625 0.953125 Z M 28.515625 -665.515625 "/></g></g></g></g></g></svg>